<svg viewBox="0 0 412 71" fill="none" xmlns="http://www.w3.org/2000/svg">
<path d="M26.6982 39.5836C25.436 43.1271 23.4641 44.8717 20.311 46.0218C20.0552 46.1131 18.7525 46.5669 17.2187 46.7941C13.948 47.2791 10.7922 46.738 8.16987 45.3898C5.44936 43.9912 3.30259 41.7239 2.19104 38.8342C1.87171 38.0069 2.26987 37.079 3.08472 36.7435C5.62097 35.7037 7.90331 34.1021 9.68909 32.1121C10.0576 31.6658 12.3509 29.0707 16.3398 28.4801C19.1178 28.0687 21.6313 28.8626 23.937 30.3875C26.2426 31.9123 27.9604 36.04 26.6982 39.5836ZM19.2014 42.9597C22.1372 41.8897 24.0959 39.1499 23.8535 36.4459C23.731 35.0694 23.0488 33.8236 21.9354 32.9424C20.5836 31.8712 18.7193 31.4187 16.8206 31.7012C13.867 32.1392 12.2011 34.1763 12.1835 34.1966C12.1659 34.2204 12.1462 34.2413 12.1272 34.2645C10.3888 36.2078 8.25345 37.8391 5.88486 39.0401C7.92555 42.4203 12.1692 44.2514 16.7372 43.5747C17.9937 43.3875 19.0807 43.0037 19.2014 42.9597Z" fill="#5F483D"/>
<path d="M23.8533 36.4455C24.0959 39.1496 22.137 41.8893 19.2012 42.9594C19.0806 43.0033 17.9935 43.387 16.7369 43.574C12.169 44.2507 7.92528 42.4197 5.88458 39.0395C8.25312 37.8386 10.3887 36.2072 12.127 34.2639C12.146 34.2408 12.1657 34.2199 12.1833 34.1959C12.2008 34.1757 13.8668 32.1385 16.8204 31.7005C18.7191 31.418 20.5835 31.8706 21.9352 32.9418C23.0484 33.8231 23.7308 35.069 23.8533 36.4455ZM19.5332 40.6766C20.2733 40.173 20.4648 39.1607 19.9629 38.4167C19.4604 37.6705 18.4522 37.4756 17.7114 37.9771C17.6363 38.0281 17.5563 38.071 17.4713 38.1022C17.3071 38.1602 16.7769 38.3224 16.2748 38.3968C15.5108 38.5101 14.7617 38.4866 14.0467 38.3274C13.1727 38.1337 12.3091 38.6872 12.1178 39.5661C11.9581 40.3042 12.3238 41.0366 12.9649 41.3662C13.0847 41.4278 13.217 41.4758 13.3544 41.5063C14.4572 41.7517 15.602 41.7886 16.7556 41.6181C17.4962 41.5076 18.5802 41.1659 18.5874 41.1625C18.921 41.0397 19.2388 40.8763 19.5332 40.6766Z" fill="#A67861"/>
<path d="M19.9595 38.4172C20.4614 39.1611 20.2698 40.1732 19.5299 40.6769C19.2357 40.8764 18.9178 41.0399 18.5843 41.1625C18.577 41.1661 17.4932 41.5076 16.7526 41.6181C15.599 41.7886 14.4543 41.7518 13.3517 41.5063C13.2142 41.4758 13.082 41.4278 12.9621 41.3662C12.3211 41.0366 11.9554 40.3043 12.1151 39.5663C12.3064 38.6874 13.17 38.1339 14.0439 38.3276C14.7588 38.4869 15.5079 38.5104 16.2718 38.3971C16.7739 38.3227 17.3041 38.1606 17.4683 38.1025C17.5533 38.0713 17.6334 38.0284 17.7083 37.9774C18.449 37.476 19.4571 37.671 19.9595 38.4172Z" fill="#5F483D"/>
<path d="M35.8736 55.8435C37.536 54.1722 38.3197 51.7996 38.0183 49.4875C35.71 49.1844 33.3586 49.9638 31.6963 51.6437C30.034 53.315 29.2502 55.6876 29.5517 57.9997C31.86 58.3028 34.2113 57.5234 35.8736 55.8435ZM48.5693 36.3079L48.9655 34.905L27.2778 34.8964V39.33H48.6812C48.3281 38.3601 48.285 37.3124 48.5693 36.3079ZM68.698 36.3079L69.0942 34.905H59.1633C59.1633 34.905 57.9489 39.2174 57.9058 39.33H68.8013C68.4568 38.3601 68.4137 37.3124 68.698 36.3079ZM83.2368 39.33C83.2368 39.2434 83.2282 35.719 83.2282 35.719C83.2282 35.2687 82.8664 34.905 82.4185 34.905H79.3006C79.3006 34.905 78.0862 39.2174 78.0431 39.33H83.2368ZM90.8938 38.8364V33.2684C90.8938 20.9201 80.9026 10.8751 68.6204 10.8751H62.109C58.724 10.8751 55.4855 11.6199 52.4624 13.0833C51.9628 13.3258 51.3685 13.2911 50.8948 12.9967C50.4211 12.7023 50.1368 12.1741 50.1368 11.6199V5.67949C50.1368 5.5063 49.8095 5.37641 49.7751 5.37641H49.7406C45.193 5.89597 41.0845 8.14742 38.1647 11.7238C37.8805 12.0701 37.467 12.2866 37.0192 12.3126C34.7023 12.4685 31.9891 14.0705 29.7498 16.599C27.519 19.1276 26.184 22.0891 26.184 24.531C26.184 27.0942 28.4836 31.398 36.9847 31.6231L49.8698 31.6318L50.0507 30.9823C50.2919 30.1164 51.1876 29.6141 52.0489 29.8566C52.9102 30.0991 53.4098 30.9996 53.1686 31.8656L51.6786 37.1825C51.558 37.6154 51.6097 38.0657 51.8336 38.4554C52.0489 38.8451 52.4021 39.1308 52.8327 39.2521C52.9878 39.2954 53.1342 39.3127 53.2892 39.3127C54.0299 39.3127 54.6931 38.8104 54.8912 38.0917L57.1823 29.9172C57.3976 29.1465 57.0445 28.3412 56.3555 27.9775C56.2779 27.9602 53.8232 26.9817 53.8232 26.9817C52.9878 26.6439 52.5916 25.7001 52.9189 24.8601C53.2548 24.0201 54.1936 23.6218 55.029 23.9509C55.029 23.9509 57.3115 24.8428 57.4063 24.8774C59.7404 25.8213 60.9893 28.3672 60.3002 30.8005L60.0677 31.6318H69.9985L70.1794 30.9823C70.4206 30.1164 71.3163 29.6141 72.1776 29.8566C73.0389 30.0991 73.5385 30.9996 73.2973 31.8656L71.8073 37.1825C71.6867 37.6154 71.7384 38.0657 71.9537 38.4554C72.169 38.8451 72.5308 39.1308 72.9528 39.2521C73.1078 39.2954 73.2543 39.3127 73.4093 39.3127C74.15 39.3127 74.8132 38.8104 75.0113 38.0917L77.311 29.9172C77.5263 29.1465 77.1732 28.3412 76.4755 27.9775C76.398 27.9602 73.9433 26.9817 73.9433 26.9817C73.1078 26.6439 72.7116 25.7001 73.0389 24.8601C73.3748 24.0201 74.3137 23.6218 75.1491 23.9509C75.1491 23.9509 77.4316 24.8428 77.5263 24.8774C79.8605 25.8213 81.1094 28.3672 80.4289 30.8005L80.1964 31.6318H82.4013C84.6321 31.6318 86.4581 33.4589 86.4581 35.7104C86.4581 35.7104 86.4839 38.7758 86.4753 38.8624C86.4236 43.4259 85.3211 47.8076 83.2023 51.8862C80.8768 56.3458 77.4316 60.1213 73.237 62.8144C72.5566 63.2473 71.8676 63.6543 71.1613 64.0267C78.2154 62.3814 84.4512 57.7399 87.974 50.9769C89.9205 47.2447 90.9282 43.0536 90.8852 38.871C90.8938 38.8624 90.8938 38.8451 90.8938 38.8364ZM96.5612 39.33V34.8964H94.1409C94.1409 34.8964 94.1409 39.1914 94.1323 39.33H96.5612ZM99.7997 33.2597V40.958C99.7997 41.8586 99.0762 42.5859 98.1804 42.5859H93.9256C93.5035 46.0237 92.47 49.3922 90.8593 52.4837C85.8379 62.1216 75.9329 67.9407 65.4508 67.9407C63.3837 67.9407 61.2907 67.7156 59.2064 67.248C58.4226 67.0661 57.88 66.3387 57.9489 65.5334C58.0178 64.7281 58.6551 64.0873 59.4562 64.0353C63.7282 63.7582 67.8969 62.3814 71.5058 60.0693C75.2266 57.688 78.2843 54.3368 80.3428 50.3794C81.6348 47.8942 82.5047 45.2877 82.9353 42.5859H47.174L41.162 48.6302C41.7563 52.0767 40.6539 55.653 38.1647 58.1556C36.1234 60.2079 33.35 61.3249 30.5249 61.3249C29.6033 61.3249 28.6645 61.2037 27.7515 60.9612C27.1917 60.814 26.7524 60.3724 26.606 59.8095C26.3648 58.8916 26.2442 57.9478 26.2442 57.0212C26.2442 54.1809 27.3553 51.3926 29.3966 49.3403C31.8858 46.8377 35.4344 45.7293 38.871 46.3268L42.5918 42.5859H25.6499C24.7542 42.5859 24.0307 41.8586 24.0307 40.958V33.2597C24.0307 32.3592 24.7542 31.6318 25.6499 31.6318H26.451C24.3149 29.9605 22.9454 27.6138 22.9454 24.5397C22.9454 17.8633 29.6895 10.0958 36.0976 9.14326C39.517 5.21188 44.2025 2.73528 49.3703 2.13778C49.5339 2.12047 49.689 2.10315 49.8354 2.10315C51.7905 2.10315 53.384 3.70514 53.384 5.67083V9.15192C56.166 8.1301 59.0944 7.61054 62.1176 7.61054H68.629C82.1515 7.61054 93.2451 18.2356 94.0892 31.6231H98.189C99.0762 31.6318 99.7997 32.3592 99.7997 33.2597Z" fill="#5F483D"/>
<path d="M96.5612 34.8877V39.3214H94.1323C94.1323 39.1741 94.1409 34.8877 94.1409 34.8877H96.5612Z" fill="#C4B5AE"/>
<path d="M43.4187 20.7296C43.4187 17.3004 40.6453 14.5208 37.2431 14.5208C33.841 14.5208 31.0676 17.3091 31.0676 20.7296C31.0676 24.15 33.841 26.9384 37.2431 26.9384C40.6453 26.9384 43.4187 24.1587 43.4187 20.7296ZM83.0731 21.2232C83.7105 20.591 83.7191 19.5605 83.0904 18.9197C79.2317 14.997 74.0983 12.8322 68.6291 12.8322H64.5982C63.7024 12.8322 62.9789 13.5596 62.9789 14.4601C62.9789 15.3607 63.7024 16.0881 64.5982 16.0881H68.6291C73.2284 16.0881 77.5436 17.9066 80.7907 21.2058C81.1094 21.5262 81.5228 21.6908 81.9448 21.6908C82.341 21.6908 82.7545 21.5349 83.0731 21.2232ZM90.8938 33.2684V38.8711C90.9369 43.0536 89.9291 47.2447 87.9826 50.9769C84.4598 57.7399 78.224 62.3814 71.1699 64.0267C71.8762 63.6543 72.5738 63.2473 73.2457 62.8144C77.4402 60.1213 80.8854 56.3458 83.2109 51.8862C85.3298 47.8076 86.4322 43.4259 86.4839 38.8624C86.4839 38.7671 86.4667 35.7104 86.4667 35.7104C86.4667 33.4589 84.6493 31.6318 82.4099 31.6318H80.205L80.4375 30.8005C81.118 28.3672 79.8777 25.8213 77.535 24.8774C77.4402 24.8428 75.1577 23.9509 75.1577 23.9509C74.3309 23.6132 73.3835 24.0201 73.0476 24.8601C72.7116 25.6914 73.1165 26.644 73.9519 26.9817C73.9519 26.9817 76.4066 27.9602 76.4842 27.9775C77.1818 28.3412 77.535 29.1465 77.3196 29.9172L75.0199 38.0917C74.8218 38.8104 74.1586 39.3127 73.4179 39.3127C73.2629 39.3127 73.1165 39.2954 72.9614 39.2521C72.5308 39.1308 72.1776 38.8451 71.9623 38.4554C71.747 38.0657 71.6953 37.6068 71.8159 37.1825L73.3059 31.8656C73.5471 30.9996 73.0476 30.0991 72.1862 29.8566C71.3249 29.6141 70.4292 30.1164 70.188 30.9823L70.0071 31.6318H60.0849L60.3175 30.8005C60.9979 28.3672 59.7576 25.8213 57.4235 24.8774C57.3287 24.8428 55.0463 23.9509 55.0463 23.9509C54.2194 23.6132 53.272 24.0201 52.9361 24.8601C52.6002 25.6914 53.005 26.644 53.8405 26.9817C53.8405 26.9817 56.2952 27.9602 56.3727 27.9775C57.0617 28.3412 57.4235 29.1465 57.1995 29.9172L54.9085 38.0917C54.7018 38.8104 54.0472 39.3127 53.3064 39.3127C53.1514 39.3127 53.005 39.2954 52.85 39.2521C52.4193 39.1308 52.0662 38.8451 51.8508 38.4554C51.6355 38.0657 51.5838 37.6068 51.6958 37.1825L53.1859 31.8656C53.427 30.9996 52.9275 30.0991 52.0662 29.8566C51.2049 29.6141 50.3091 30.1164 50.0679 30.9823L49.8871 31.6318L37.002 31.6231C28.5009 31.398 26.2012 27.1029 26.2012 24.5311C26.2012 22.0891 27.5362 19.1276 29.767 16.599C31.9978 14.0705 34.7195 12.4685 37.0364 12.3126C37.4843 12.278 37.8977 12.0701 38.1819 11.7238C41.1018 8.14742 45.2102 5.89597 49.7579 5.37641H49.7923C49.8268 5.36775 50.1541 5.5063 50.1541 5.67949V11.6112C50.1541 12.1741 50.4383 12.6936 50.912 12.988C51.3857 13.2825 51.98 13.3171 52.4796 13.0746C55.5028 11.6112 58.7499 10.8665 62.1262 10.8665H68.6377C80.9027 10.8751 90.8938 20.9201 90.8938 33.2684Z" fill="#85AE62"/>
<path d="M83.2282 35.719C83.2282 35.719 83.2368 39.2434 83.2368 39.33H78.0431C78.0862 39.2174 79.3006 34.905 79.3006 34.905H82.4186C82.8664 34.905 83.2282 35.2687 83.2282 35.719Z" fill="#C4B5AE"/>
<path d="M83.0904 18.9111C83.7191 19.5519 83.7105 20.5824 83.0732 21.2145C82.7545 21.5262 82.341 21.6821 81.9362 21.6821C81.5142 21.6821 81.1008 21.5176 80.7821 21.1972C77.5436 17.8979 73.2198 16.0795 68.6205 16.0795H64.5896C63.6938 16.0795 62.9703 15.3521 62.9703 14.4515C62.9703 13.5509 63.6938 12.8235 64.5896 12.8235H68.6205C74.0984 12.8235 79.2317 14.9884 83.0904 18.9111Z" fill="#5F483D"/>
<path d="M69.0942 34.905L68.698 36.3079C68.4137 37.3124 68.4568 38.3601 68.8099 39.33H57.9058C57.9489 39.2174 59.1633 34.905 59.1633 34.905H69.0942ZM48.9569 34.905L48.5607 36.3079C48.2764 37.3124 48.3195 38.3601 48.6726 39.33H27.2778V34.8964L48.9569 34.905Z" fill="#C4B5AE"/>
<path d="M40.4988 20.7296C40.4988 18.9197 39.0346 17.4563 37.2431 17.4563C35.443 17.4563 33.9874 18.9284 33.9874 20.7296C33.9874 22.5394 35.4516 24.0028 37.2431 24.0028C39.0346 24.0028 40.4988 22.5394 40.4988 20.7296ZM37.2431 14.5208C40.6539 14.5208 43.4187 17.3091 43.4187 20.7296C43.4187 24.15 40.6453 26.9384 37.2431 26.9384C33.841 26.9384 31.0676 24.15 31.0676 20.7296C31.0676 17.3091 33.8323 14.5208 37.2431 14.5208Z" fill="#5F483D"/>
<path d="M38.8624 20.7296C38.8624 19.829 38.1389 19.1016 37.2431 19.1016C36.3474 19.1016 35.6239 19.829 35.6239 20.7296C35.6239 21.6301 36.3474 22.3575 37.2431 22.3575C38.1389 22.3575 38.8624 21.6301 38.8624 20.7296ZM37.2431 17.4563C39.0433 17.4563 40.4989 18.9284 40.4989 20.7296C40.4989 22.5394 39.0346 24.0028 37.2431 24.0028C35.443 24.0028 33.9874 22.5307 33.9874 20.7296C33.9788 18.9197 35.443 17.4563 37.2431 17.4563Z" fill="#EFEFEE"/>
<path d="M37.2431 19.1016C38.1389 19.1016 38.8624 19.829 38.8624 20.7296C38.8624 21.6301 38.1389 22.3575 37.2431 22.3575C36.3474 22.3575 35.6239 21.6301 35.6239 20.7296C35.6153 19.829 36.3474 19.1016 37.2431 19.1016Z" fill="#5F483D"/>
<path d="M38.0183 49.4875C38.3198 51.8082 37.5446 54.1723 35.8737 55.8435C34.2113 57.5148 31.8514 58.3028 29.5517 57.9997C29.2502 55.679 30.0254 53.315 31.6963 51.6437C33.3586 49.9638 35.71 49.1844 38.0183 49.4875Z" fill="#337045"/>
<path d="M139.258 27.0725C138.044 27.0725 136.945 27.3126 135.959 27.793C134.998 28.248 134.177 28.9306 133.494 29.8406C132.837 30.7507 132.331 31.8504 131.977 33.1397C131.623 34.429 131.446 35.8826 131.446 37.5005C131.446 39.624 131.737 41.4694 132.319 43.0368C132.9 44.5789 133.772 45.767 134.935 46.6013C136.098 47.4355 137.539 47.8526 139.258 47.8526C140.37 47.8526 141.432 47.7515 142.443 47.5493C143.454 47.3218 144.478 47.031 145.515 46.6771V50.2037C144.504 50.6082 143.467 50.8989 142.405 51.0758C141.369 51.2781 140.155 51.3792 138.765 51.3792C136.136 51.3792 133.962 50.8104 132.243 49.6728C130.524 48.5352 129.234 46.9173 128.375 44.819C127.515 42.7208 127.086 40.2686 127.086 37.4626C127.086 35.4149 127.351 33.5442 127.882 31.8504C128.413 30.1314 129.196 28.6525 130.233 27.4138C131.269 26.175 132.546 25.227 134.063 24.5698C135.58 23.8872 137.311 23.5459 139.258 23.5459C140.572 23.5459 141.862 23.6976 143.126 24.001C144.39 24.279 145.515 24.6835 146.501 25.2144L145.022 28.6272C144.188 28.2227 143.277 27.8688 142.292 27.5654C141.331 27.2368 140.32 27.0725 139.258 27.0725ZM154.603 29.8786C154.603 30.5106 154.578 31.1426 154.528 31.7746C154.502 32.4066 154.464 32.9248 154.414 33.3293H154.641C155.046 32.6214 155.539 32.04 156.12 31.585C156.727 31.1299 157.397 30.7886 158.13 30.5611C158.888 30.3336 159.659 30.2198 160.443 30.2198C161.935 30.2198 163.199 30.4853 164.235 31.0162C165.297 31.5218 166.093 32.3307 166.624 33.443C167.18 34.5301 167.458 35.9458 167.458 37.6901V51H163.325V38.2589C163.325 36.6662 163.022 35.4781 162.415 34.6944C161.808 33.8854 160.86 33.481 159.571 33.481C158.332 33.481 157.346 33.759 156.613 34.3152C155.88 34.8714 155.362 35.693 155.058 36.78C154.755 37.8418 154.603 39.1563 154.603 40.7237V51H150.508V22.1808H154.603V29.8786ZM180.833 30.1819C183.234 30.1819 185.042 30.7507 186.255 31.8883C187.494 33.0006 188.113 34.7576 188.113 37.1592V51H185.194L184.397 48.156H184.246C183.664 48.8891 183.083 49.4958 182.501 49.9762C181.945 50.4565 181.288 50.8104 180.529 51.0379C179.796 51.2654 178.886 51.3792 177.799 51.3792C176.662 51.3792 175.638 51.1643 174.728 50.7346C173.818 50.2795 173.097 49.597 172.566 48.6869C172.035 47.7515 171.77 46.5886 171.77 45.1982C171.77 43.1253 172.503 41.5453 173.969 40.4582C175.461 39.3712 177.723 38.7771 180.757 38.676L184.018 38.5622V37.4246C184.018 35.9078 183.702 34.8461 183.07 34.2394C182.463 33.6326 181.604 33.3293 180.491 33.3293C179.556 33.3293 178.633 33.481 177.723 33.7843C176.813 34.0877 175.928 34.4542 175.069 34.884L173.818 31.9642C174.753 31.4586 175.815 31.0414 177.003 30.7128C178.216 30.3589 179.493 30.1819 180.833 30.1819ZM181.553 41.2546C179.48 41.3557 178.039 41.7475 177.23 42.4301C176.421 43.0874 176.017 44.0227 176.017 45.2362C176.017 46.2979 176.295 47.069 176.851 47.5493C177.433 48.0296 178.178 48.2698 179.088 48.2698C180.479 48.2698 181.642 47.8274 182.577 46.9426C183.538 46.0578 184.018 44.7306 184.018 42.961V41.1787L181.553 41.2546ZM215.565 30.1819C217.739 30.1819 219.369 30.776 220.456 31.9642C221.569 33.1523 222.125 35.061 222.125 37.6901V51H218.029V38.221C218.029 36.6536 217.739 35.4781 217.157 34.6944C216.601 33.8854 215.729 33.481 214.541 33.481C212.897 33.481 211.722 34.0498 211.014 35.1874C210.332 36.2997 209.99 37.9176 209.99 40.0411V51H205.857V38.221C205.857 37.1845 205.731 36.3123 205.478 35.6045C205.225 34.8966 204.846 34.3658 204.34 34.0118C203.835 33.6579 203.177 33.481 202.368 33.481C201.231 33.481 200.333 33.759 199.676 34.3152C199.019 34.8714 198.551 35.693 198.273 36.78C197.995 37.8418 197.856 39.1437 197.856 40.6858V51H193.761V30.5611H196.984L197.59 33.2914H197.78C198.185 32.5835 198.665 32.0021 199.221 31.547C199.802 31.092 200.46 30.7507 201.193 30.5232C201.926 30.2957 202.684 30.1819 203.468 30.1819C204.909 30.1819 206.122 30.46 207.108 31.0162C208.094 31.547 208.827 32.3686 209.308 33.481H209.573C210.18 32.3434 211.027 31.5091 212.114 30.9782C213.201 30.4474 214.351 30.1819 215.565 30.1819ZM235.491 30.1819C237.185 30.1819 238.651 30.5611 239.89 31.3195C241.128 32.0526 242.076 33.1144 242.734 34.5048C243.416 35.8952 243.757 37.5384 243.757 39.4344V41.6338H230.903C230.953 43.732 231.459 45.3373 232.419 46.4496C233.38 47.5619 234.732 48.1181 236.477 48.1181C237.716 48.1181 238.815 48.0043 239.776 47.7768C240.762 47.524 241.76 47.1574 242.772 46.6771V50.0141C241.811 50.4691 240.825 50.8104 239.814 51.0379C238.828 51.2654 237.627 51.3792 236.211 51.3792C234.366 51.3792 232.723 50.9874 231.282 50.2037C229.841 49.42 228.716 48.2571 227.907 46.715C227.098 45.1477 226.693 43.2264 226.693 40.9512C226.693 38.6507 227.06 36.7042 227.793 35.1115C228.526 33.5189 229.55 32.3054 230.865 31.4712C232.204 30.6117 233.747 30.1819 235.491 30.1819ZM235.491 33.2914C234.202 33.2914 233.165 33.759 232.381 34.6944C231.598 35.6298 231.143 36.957 231.016 38.676H239.7C239.7 37.6142 239.548 36.6789 239.245 35.8699C238.942 35.061 238.474 34.429 237.842 33.9739C237.235 33.5189 236.452 33.2914 235.491 33.2914ZM252.44 51H248.345V22.1808H252.44V51ZM265.931 30.1819C267.624 30.1819 269.091 30.5611 270.329 31.3195C271.568 32.0526 272.516 33.1144 273.173 34.5048C273.856 35.8952 274.197 37.5384 274.197 39.4344V41.6338H261.342C261.393 43.732 261.898 45.3373 262.859 46.4496C263.82 47.5619 265.172 48.1181 266.916 48.1181C268.155 48.1181 269.255 48.0043 270.216 47.7768C271.201 47.524 272.2 47.1574 273.211 46.6771V50.0141C272.251 50.4691 271.265 50.8104 270.253 51.0379C269.268 51.2654 268.067 51.3792 266.651 51.3792C264.806 51.3792 263.162 50.9874 261.721 50.2037C260.28 49.42 259.156 48.2571 258.347 46.715C257.538 45.1477 257.133 43.2264 257.133 40.9512C257.133 38.6507 257.5 36.7042 258.233 35.1115C258.966 33.5189 259.99 32.3054 261.304 31.4712C262.644 30.6117 264.186 30.1819 265.931 30.1819ZM265.931 33.2914C264.641 33.2914 263.605 33.759 262.821 34.6944C262.037 35.6298 261.582 36.957 261.456 38.676H270.14C270.14 37.6142 269.988 36.6789 269.685 35.8699C269.381 35.061 268.914 34.429 268.282 33.9739C267.675 33.5189 266.891 33.2914 265.931 33.2914ZM295.962 40.7616C295.962 42.4554 295.747 43.9595 295.317 45.2741C294.888 46.5886 294.268 47.701 293.459 48.611C292.676 49.5211 291.715 50.2163 290.577 50.6966C289.44 51.1517 288.163 51.3792 286.747 51.3792C285.458 51.3792 284.257 51.1517 283.145 50.6966C282.033 50.2163 281.072 49.5211 280.263 48.611C279.454 47.701 278.822 46.5886 278.367 45.2741C277.937 43.9595 277.723 42.4427 277.723 40.7237C277.723 38.4738 278.089 36.5651 278.822 34.9978C279.555 33.4304 280.604 32.2422 281.97 31.4333C283.36 30.599 285.003 30.1819 286.899 30.1819C288.669 30.1819 290.236 30.599 291.601 31.4333C292.966 32.2422 294.028 33.4304 294.787 34.9978C295.57 36.5651 295.962 38.4864 295.962 40.7616ZM281.97 40.7616C281.97 42.2784 282.134 43.593 282.463 44.7053C282.816 45.7923 283.347 46.6266 284.055 47.208C284.788 47.7894 285.711 48.0802 286.823 48.0802C287.961 48.0802 288.884 47.7894 289.591 47.208C290.325 46.6266 290.855 45.7923 291.184 44.7053C291.538 43.593 291.715 42.2784 291.715 40.7616C291.715 39.1942 291.538 37.8797 291.184 36.8179C290.83 35.7562 290.299 34.9472 289.591 34.391C288.884 33.8096 287.948 33.5189 286.785 33.5189C285.092 33.5189 283.866 34.1509 283.107 35.4149C282.349 36.6789 281.97 38.4611 281.97 40.7616ZM310.644 30.1819C312.868 30.1819 314.575 30.776 315.763 31.9642C316.976 33.1523 317.583 35.061 317.583 37.6901V51H313.488V38.2589C313.488 36.6662 313.172 35.4781 312.54 34.6944C311.933 33.8854 310.985 33.481 309.696 33.481C307.8 33.481 306.498 34.1003 305.79 35.339C305.082 36.5778 304.728 38.36 304.728 40.6858V51H300.633V30.5611H303.856L304.425 33.2914H304.652C305.082 32.5835 305.6 32.0021 306.207 31.547C306.814 31.092 307.496 30.7507 308.255 30.5232C309.013 30.2957 309.809 30.1819 310.644 30.1819Z" fill="white"/>
</svg>
